# xmcd CD database file
#
# Track frame offsets:
#	150
#	23655
#	46091
#	67811
#
# Disc length: 1202 seconds
#
# Revision: 5
# Processed by: cddbd v1.5.2PL0 Copyright (c) Steve Scherf et al.
# Submitted via: CDex 1.70beta2
#
DISCID=2304b004
DTITLE=アンジェラ・アキ - Kiss Me Good-Bye
DYEAR=2006
DGENRE=J-Pop
TTITLE0=Kiss Me Good-Bye
TTITLE1=Santa Fe
TTITLE2=青い影
TTITLE3=Kiss Me Good-Bye -featured in FINAL FANTASY XII-
EXTD=YEAR: 2006
EXTT0=
EXTT1=
EXTT2=
EXTT3=
PLAYORDER=
